<svg width="11" height="11" viewBox="0 0 11 11" fill="none" xmlns="http://www.w3.org/2000/svg">
<g clip-path="url(#clip0_234_29)">
<path d="M9.02417 9.34409C9.0742 9.47721 8.93126 9.60051 8.80692 9.53151L6.64384 8.33111C6.56578 8.28778 6.46736 8.3203 6.43047 8.4016L5.40833 10.6544C5.34957 10.7839 5.16131 10.77 5.12218 10.6333L4.44146 8.25496C4.4169 8.16913 4.32431 8.12253 4.24074 8.15394L1.92501 9.02414C1.79189 9.07416 1.66858 8.93123 1.73759 8.80688L2.93799 6.64381C2.98131 6.56574 2.94879 6.46732 2.86749 6.43044L0.614696 5.40829C0.485194 5.34953 0.499074 5.16127 0.635793 5.12214L3.01413 4.44143C3.09996 4.41686 3.14656 4.32428 3.11516 4.2407L2.24496 1.92497C2.19493 1.79185 2.33787 1.66854 2.46221 1.73755L4.62529 2.93795C4.70335 2.98127 4.80177 2.94876 4.83866 2.86746L5.8608 0.614661C5.91956 0.485159 6.10782 0.499038 6.14695 0.635758L6.82767 3.0141C6.85223 3.09993 6.94482 3.14653 7.02839 3.11512L9.34412 2.24492C9.47724 2.1949 9.60055 2.33783 9.53154 2.46218L8.33114 4.62525C8.28782 4.70332 8.32034 4.80174 8.40164 4.83862L10.6544 5.86077C10.7839 5.91952 10.7701 6.10779 10.6333 6.14692L8.255 6.82763C8.16917 6.8522 8.12257 6.94478 8.15397 7.02835L9.02417 9.34409Z" fill="#333333"/>
</g>
<defs>
<clipPath id="clip0_234_29">
<rect width="11" height="11" fill="white"/>
</clipPath>
</defs>
</svg>
