<svg width="51" height="11" viewBox="0 0 51 11" fill="none" xmlns="http://www.w3.org/2000/svg">
<g clip-path="url(#clip0_234_37)">
<path d="M9.02417 9.34409C9.0742 9.47721 8.93126 9.60051 8.80692 9.53151L6.64384 8.33111C6.56578 8.28778 6.46736 8.3203 6.43047 8.4016L5.40833 10.6544C5.34957 10.7839 5.16131 10.77 5.12218 10.6333L4.44146 8.25496C4.4169 8.16913 4.32431 8.12253 4.24074 8.15394L1.92501 9.02414C1.79189 9.07416 1.66858 8.93123 1.73759 8.80688L2.93799 6.64381C2.98131 6.56574 2.94879 6.46732 2.86749 6.43044L0.614696 5.40829C0.485194 5.34953 0.499074 5.16127 0.635793 5.12214L3.01413 4.44143C3.09996 4.41686 3.14656 4.32428 3.11516 4.2407L2.24496 1.92497C2.19493 1.79185 2.33787 1.66854 2.46221 1.73755L4.62529 2.93795C4.70335 2.98127 4.80177 2.94876 4.83866 2.86746L5.8608 0.614661C5.91956 0.485159 6.10782 0.499038 6.14695 0.635758L6.82767 3.0141C6.85223 3.09993 6.94482 3.14653 7.02839 3.11512L9.34412 2.24492C9.47724 2.1949 9.60055 2.33783 9.53154 2.46218L8.33114 4.62525C8.28782 4.70332 8.32034 4.80174 8.40164 4.83862L10.6544 5.86077C10.7839 5.91952 10.7701 6.10779 10.6333 6.14692L8.255 6.82763C8.16917 6.8522 8.12257 6.94478 8.15397 7.02835L9.02417 9.34409Z" fill="#333333"/>
<path d="M29.0242 9.34409C29.0742 9.47721 28.9313 9.60051 28.8069 9.53151L26.6438 8.33111C26.5658 8.28778 26.4674 8.3203 26.4305 8.4016L25.4083 10.6544C25.3496 10.7839 25.1613 10.77 25.1222 10.6333L24.4415 8.25496C24.4169 8.16913 24.3243 8.12253 24.2407 8.15394L21.925 9.02414C21.7919 9.07416 21.6686 8.93123 21.7376 8.80688L22.938 6.64381C22.9813 6.56574 22.9488 6.46732 22.8675 6.43044L20.6147 5.40829C20.4852 5.34953 20.4991 5.16127 20.6358 5.12214L23.0141 4.44143C23.1 4.41686 23.1466 4.32428 23.1152 4.2407L22.245 1.92497C22.1949 1.79185 22.3379 1.66854 22.4622 1.73755L24.6253 2.93795C24.7034 2.98127 24.8018 2.94876 24.8387 2.86746L25.8608 0.614661C25.9196 0.485159 26.1078 0.499038 26.147 0.635758L26.8277 3.0141C26.8522 3.09993 26.9448 3.14653 27.0284 3.11512L29.3441 2.24492C29.4772 2.1949 29.6005 2.33783 29.5315 2.46218L28.3311 4.62525C28.2878 4.70332 28.3203 4.80174 28.4016 4.83862L30.6544 5.86077C30.7839 5.91952 30.7701 6.10779 30.6333 6.14692L28.255 6.82763C28.1692 6.8522 28.1226 6.94478 28.154 7.02835L29.0242 9.34409Z" fill="#333333"/>
<path d="M49.0242 9.34409C49.0742 9.47721 48.9313 9.60051 48.8069 9.53151L46.6438 8.33111C46.5658 8.28778 46.4674 8.3203 46.4305 8.4016L45.4083 10.6544C45.3496 10.7839 45.1613 10.77 45.1222 10.6333L44.4415 8.25496C44.4169 8.16913 44.3243 8.12253 44.2407 8.15394L41.925 9.02414C41.7919 9.07416 41.6686 8.93123 41.7376 8.80688L42.938 6.64381C42.9813 6.56574 42.9488 6.46732 42.8675 6.43044L40.6147 5.40829C40.4852 5.34953 40.4991 5.16127 40.6358 5.12214L43.0141 4.44143C43.1 4.41686 43.1466 4.32428 43.1152 4.2407L42.245 1.92497C42.1949 1.79185 42.3379 1.66854 42.4622 1.73755L44.6253 2.93795C44.7034 2.98127 44.8018 2.94876 44.8387 2.86746L45.8608 0.614661C45.9196 0.485159 46.1078 0.499038 46.147 0.635758L46.8277 3.0141C46.8522 3.09993 46.9448 3.14653 47.0284 3.11512L49.3441 2.24492C49.4772 2.1949 49.6005 2.33783 49.5315 2.46218L48.3311 4.62525C48.2878 4.70332 48.3203 4.80174 48.4016 4.83862L50.6544 5.86077C50.7839 5.91952 50.7701 6.10779 50.6333 6.14692L48.255 6.82763C48.1692 6.8522 48.1226 6.94478 48.154 7.02835L49.0242 9.34409Z" fill="#333333"/>
</g>
<defs>
<clipPath id="clip0_234_37">
<rect width="51" height="11" fill="white"/>
</clipPath>
</defs>
</svg>
